<svg xmlns="http://www.w3.org/2000/svg" viewBox="0 0 32 32">
  <defs>
    <linearGradient id="grad" x1="0%" y1="0%" x2="100%" y2="100%">
      <stop offset="0%" style="stop-color:#9333ea"/>
      <stop offset="100%" style="stop-color:#6366f1"/>
    </linearGradient>
  </defs>
  <circle cx="16" cy="16" r="15" fill="url(#grad)"/>
  <g fill="white" transform="translate(6, 5)">
    <!-- Head -->
    <circle cx="12" cy="3" r="2.5"/>
    <!-- Body running pose -->
    <path d="M8 7 L12 6 L15 9 L13 11 L10 10 L8 13 L5 11 L7 8 Z" fill="white"/>
    <!-- Front leg -->
    <path d="M13 11 L17 14 L19 18 L17 19 L14 15 L11 13" stroke="white" stroke-width="2" stroke-linecap="round" fill="none"/>
    <!-- Back leg -->
    <path d="M8 12 L4 16 L2 20 L4 21 L7 17 L10 14" stroke="white" stroke-width="2" stroke-linecap="round" fill="none"/>
    <!-- Front arm -->
    <path d="M10 8 L6 5 L4 6" stroke="white" stroke-width="1.8" stroke-linecap="round" fill="none"/>
    <!-- Back arm -->
    <path d="M14 8 L17 6 L19 7" stroke="white" stroke-width="1.8" stroke-linecap="round" fill="none"/>
  </g>
</svg>
